<?xml version="1.0" encoding="UTF-8" standalone="no"?>
<!-- Created with Inkscape (http://www.inkscape.org/) -->

<svg
   width="3840.0px"
   height="2160.0px"
   viewBox="0 0 3840.0 2160.0"
   version="1.1"
   id="SVGRoot"
   sodipodi:docname="background.svg"
   inkscape:version="1.1.2 (0a00cf5339, 2022-02-04)"
   xmlns:inkscape="http://www.inkscape.org/namespaces/inkscape"
   xmlns:sodipodi="http://sodipodi.sourceforge.net/DTD/sodipodi-0.dtd"
   xmlns="http://www.w3.org/2000/svg"
   xmlns:svg="http://www.w3.org/2000/svg">
  <sodipodi:namedview
     id="namedview1863"
     pagecolor="#ffffff"
     bordercolor="#666666"
     borderopacity="1.0"
     inkscape:pageshadow="2"
     inkscape:pageopacity="0.0"
     inkscape:pagecheckerboard="0"
     inkscape:document-units="px"
     showgrid="false"
     inkscape:zoom="0.26142019"
     inkscape:cx="1541.5795"
     inkscape:cy="810.95496"
     inkscape:window-width="1920"
     inkscape:window-height="1008"
     inkscape:window-x="0"
     inkscape:window-y="0"
     inkscape:window-maximized="1"
     inkscape:current-layer="layer3" />
  <defs
     id="defs1858">
    <inkscape:path-effect
       effect="skeletal"
       id="path-effect10893"
       is_visible="true"
       lpeversion="1"
       pattern="M 0,18.867925 C 0,8.4528302 8.4528302,0 18.867925,0 c 10.415094,0 18.867924,8.4528302 18.867924,18.867925 0,10.415094 -8.45283,18.867924 -18.867924,18.867924 C 8.4528302,37.735849 0,29.283019 0,18.867925 Z"
       copytype="single_stretched"
       prop_scale="1"
       scale_y_rel="false"
       spacing="0"
       normal_offset="0"
       tang_offset="0"
       prop_units="false"
       vertical_pattern="false"
       hide_knot="false"
       fuse_tolerance="0" />
    <inkscape:path-effect
       effect="bspline"
       id="path-effect10407"
       is_visible="true"
       lpeversion="1"
       weight="33.333333"
       steps="2"
       helper_size="0"
       apply_no_weight="true"
       apply_with_weight="true"
       only_selected="false" />
    <inkscape:path-effect
       effect="bspline"
       id="path-effect10403"
       is_visible="true"
       lpeversion="1"
       weight="33.333333"
       steps="2"
       helper_size="0"
       apply_no_weight="true"
       apply_with_weight="true"
       only_selected="false" />
    <inkscape:path-effect
       effect="bspline"
       id="path-effect10399"
       is_visible="true"
       lpeversion="1"
       weight="33.333333"
       steps="2"
       helper_size="0"
       apply_no_weight="true"
       apply_with_weight="true"
       only_selected="false" />
    <inkscape:path-effect
       effect="bspline"
       id="path-effect10395"
       is_visible="true"
       lpeversion="1"
       weight="33.333333"
       steps="2"
       helper_size="0"
       apply_no_weight="true"
       apply_with_weight="true"
       only_selected="false" />
    <inkscape:path-effect
       effect="bspline"
       id="path-effect10391"
       is_visible="true"
       lpeversion="1"
       weight="33.333333"
       steps="2"
       helper_size="0"
       apply_no_weight="true"
       apply_with_weight="true"
       only_selected="false" />
  </defs>
  <g
     inkscape:groupmode="layer"
     id="layer3"
     inkscape:label="sky">
    <rect
       style="fill:#8cc9d1;fill-opacity:1"
       id="rect12246"
       width="3851.459"
       height="2161.4358"
       x="-5.1184788"
       y="-0.049263287" />
  </g>
  <g
     inkscape:label="Layer 1"
     inkscape:groupmode="layer"
     id="layer1">
    <path
       opacity="0.8"
       d="m 764.43197,1476.8838 c -248.67049,9.4415 -454.7449,140.919 -760.9903997,212.4317 v 19.8272 452.2438 H 3846.3405 v -559.8759 c 0,0 -248.6705,-96.3025 -377.4984,-150.1186 -128.828,-53.8161 -434.4293,-67.034 -658.1279,-53.8161 -223.6987,13.218 -841.8813,162.392 -1011.6564,158.6153 -169.7737,-3.7766 -785.9567,-88.7488 -1034.62583,-79.3074 z"
       fill="#3d921f"
       id="path11182"
       style="stroke-width:1.38885" />
    <path
       opacity="0.8"
       d="m 764.43197,1633.1018 c -248.67049,7.2867 -454.7449,108.7583 -760.9904,163.9502 v 15.3023 349.0322 H 3846.3405 v -432.1004 c 0,0 -248.6705,-74.3243 -377.4984,-115.8583 -128.828,-41.5341 -434.4293,-51.7354 -658.1279,-41.5341 -223.6987,10.2013 -841.8813,125.3307 -1011.6564,122.4159 -169.7737,-2.9148 -785.9567,-68.4945 -1034.62583,-61.2078 z"
       fill="#3d921f"
       id="path11182-2"
       style="fill:#6ace46;fill-opacity:1;stroke-width:1.22012" />
    <path
       opacity="0.8"
       d="m 764.43197,1633.1018 c -248.67049,7.2867 -454.7449,108.7583 -760.9904,163.9502 v 15.3023 349.0322 H 3846.3405 v -432.1004 c 0,0 -248.6705,-74.3243 -377.4984,-115.8583 -128.828,-41.5341 -434.4293,-51.7354 -658.1279,-41.5341 -223.6987,10.2013 -841.8813,125.3307 -1011.6564,122.4159 -169.7737,-2.9148 -785.9567,-68.4945 -1034.62583,-61.2078 z"
       fill="#3d921f"
       id="path12105"
       style="fill:#6ace46;fill-opacity:1;stroke-width:1.22012" />
    <path
       opacity="0.8"
       d="m 764.43197,1777.6411 c -248.67049,5.2931 -454.7449,79.0019 -760.990404,119.0933 v 11.1155 253.5366 H 3846.3405 v -313.8772 c 0,0 -248.6705,-53.9891 -377.4984,-84.1593 -128.828,-30.1704 -434.4293,-37.5806 -658.1279,-30.1704 -223.6987,7.4103 -841.8813,91.0401 -1011.6564,88.9228 -169.7737,-2.1173 -785.9567,-49.7543 -1034.62583,-44.4613 z"
       fill="#3d921f"
       id="path12105-9"
       style="fill:#81d165;fill-opacity:1;stroke-width:1.0399" />
    <path
       opacity="0.8"
       d="m 764.432,1777.6411 c -248.67052,5.2931 -454.74493,79.0019 -760.99043,119.0933 v 11.1155 253.5366 H 3846.3405 v -313.8772 c 0,0 -248.6705,-53.9891 -377.4984,-84.1593 -128.828,-30.1704 -434.4293,-37.5806 -658.1279,-30.1704 -223.6987,7.4103 -841.8813,91.0401 -1011.6564,88.9228 -169.7737,-2.1173 -785.9567,-49.7543 -1034.6258,-44.4613 z"
       fill="#3d921f"
       id="path12105-9-1"
       style="fill:#81d165;fill-opacity:1;stroke-width:1.0399" />
    <path
       opacity="0.8"
       d="m 764.432,1905.7993 c -248.67052,3.5254 -454.74493,52.6179 -760.99043,79.3201 v 7.4033 168.8638 H 3846.3405 v -209.0527 c 0,0 -248.6705,-35.9585 -377.4984,-56.0529 -128.828,-20.0945 -434.4293,-25.0299 -658.1279,-20.0945 -223.6987,4.9356 -841.8813,60.6358 -1011.6564,59.2256 -169.7737,-1.4102 -785.9567,-33.138 -1034.6258,-29.6127 z"
       fill="#3d921f"
       id="path12105-9-1-2"
       style="fill:#94e279;fill-opacity:1;stroke-width:0.848671" />
  </g>
  <g
     inkscape:groupmode="layer"
     id="layer4"
     inkscape:label="factory">
    <rect
       style="fill:#c8b7b7;fill-rule:evenodd;stroke-width:1.91141"
       id="rect31-3"
       width="1266.0103"
       height="449.18716"
       x="2033.5482"
       y="1328.5907"
       ry="0"
       rx="0" />
    <rect
       style="fill:#916f6f;stroke-width:2.2345"
       id="rect390"
       width="175.0378"
       height="385.62561"
       x="2922.7664"
       y="813.59473"
       ry="37.872387" />
    <rect
       style="fill:#916f6f;stroke-width:2.2345"
       id="rect390-6"
       width="175.0378"
       height="385.62561"
       x="2645.1938"
       y="813.59473"
       ry="37.872387" />
    <rect
       style="fill:#c8b7b7;fill-rule:evenodd;stroke-width:2.2345"
       id="rect31"
       width="1266.0103"
       height="613.87402"
       x="2033.5482"
       y="1163.9037"
       ry="116.07606" />
    <rect
       style="fill:#483737;stroke-width:2.49442"
       id="rect785"
       width="216.20444"
       height="266.83374"
       x="2173.4473"
       y="1510.1271"
       ry="57.504658" />
    <rect
       style="fill:#483737;stroke-width:2.13783"
       id="rect785-7"
       width="216.20444"
       height="195.99602"
       x="2173.4473"
       y="1580.9647"
       ry="0" />
    <rect
       style="fill:#e3dbdb;stroke-width:4.49005"
       id="rect1058"
       width="780.56146"
       height="193.3147"
       x="2449.8904"
       y="1288.0713"
       ry="39.335251" />
  </g>
</svg>
