<?xml version="1.0" encoding="UTF-8" standalone="no"?>
<!-- Created with Inkscape (http://www.inkscape.org/) -->

<svg
   width="65.39402mm"
   height="66.910011mm"
   viewBox="0 0 65.39402 66.910011"
   version="1.1"
   id="svg5"
   inkscape:version="1.1.2 (0a00cf5339, 2022-02-04)"
   sodipodi:docname="energystar.svg"
   xmlns:inkscape="http://www.inkscape.org/namespaces/inkscape"
   xmlns:sodipodi="http://sodipodi.sourceforge.net/DTD/sodipodi-0.dtd"
   xmlns="http://www.w3.org/2000/svg"
   xmlns:svg="http://www.w3.org/2000/svg">
  <sodipodi:namedview
     id="namedview7"
     pagecolor="#ffffff"
     bordercolor="#666666"
     borderopacity="1.0"
     inkscape:pageshadow="2"
     inkscape:pageopacity="0.0"
     inkscape:pagecheckerboard="0"
     inkscape:document-units="mm"
     showgrid="false"
     fit-margin-top="0"
     fit-margin-left="0"
     fit-margin-right="0"
     fit-margin-bottom="0"
     inkscape:zoom="2"
     inkscape:cx="-63.106942"
     inkscape:cy="294.37054"
     inkscape:window-width="1920"
     inkscape:window-height="1008"
     inkscape:window-x="0"
     inkscape:window-y="0"
     inkscape:window-maximized="1"
     inkscape:current-layer="layer1" />
  <defs
     id="defs2" />
  <g
     inkscape:label="Layer 1"
     inkscape:groupmode="layer"
     id="layer1"
     transform="translate(-74.747046,-93.635558)">
  <g
   transform="matrix(1.158875,0,0,-1.158875,-412.06701,670.80456)"
   id="g27"
   inkscape:export-filename="/home/nikolas/Documents/webmaster-tsa/engstar.png"
   inkscape:export-xdpi="96"
   inkscape:export-ydpi="96">
    <path
   fill="#ffffff"
   d="m 420.07469,498.0425 v -44.3936 h 56.428 v 44.3936 z m 0.002,-44.3952 v -13.34184 h 56.42688 v 13.3424 h -1.32496 v -12.0184 h -53.78 v 12.0184 h -1.32184 z"
   id="path21" />

    <path
   fill="#20bbed"
   d="m 421.39968,496.71752 v -18.7576 c 6.02272,8.344 15.8296,13.7872 26.8856,13.7872 11.0576,0 20.8656,-5.44528 26.8936,-13.7952 v 18.7656 h -53.78 z m 26.8856,-6.29528 c -11.196,0 -21.0808,-5.72176 -26.8856,-14.3936 v -21.0544 h 53.78 v 21.0472 c -5.8056,8.6752 -15.6944,14.4008 -26.8944,14.4008 z m -26.8872,-36.7752 v -12.0184 h 53.78 v 12.0184 z"
   id="path23" />

    <path
   fill="#ffffff"
   d="m 463.4184,482.6768 c -0.263,0 -0.49518,-0.15813 -0.59219,-0.40313 0,0 -2.32832,-5.97112 -2.59528,-6.65312 -0.731,-0.04 -7.0984,-0.375 -7.0984,-0.375 -0.337,-0.018 -0.60156,-0.29937 -0.60156,-0.63437 0,-0.01 0.002,-0.0224 0.002,-0.0344 0.018,-0.349 0.31731,-0.617 0.67031,-0.6 l 7.50472,0.39687 c 0.247,0.012 0.46838,0.17113 0.55938,0.40313 0,0 1.4216,3.65176 2.1516,5.51872 0.725,-1.864 2.14064,-5.49688 2.14064,-5.49688 0.09,-0.232 0.30712,-0.38813 0.55312,-0.40313 0,0 3.87528,-0.22093 5.85624,-0.33593 -1.528,-1.268 -4.52344,-3.75936 -4.52344,-3.75936 -0.149,-0.122 -0.23124,-0.3005 -0.23124,-0.48751 0,-0.054 0.006,-0.10581 0.0187,-0.15781 0,0 0.9628,-3.75896 1.45784,-5.68592 -1.668,1.07504 -4.91872,3.17184 -4.91872,3.17184 -0.207,0.135 -0.47694,0.13568 -0.68594,0.005 0,0 -3.28552,-2.094 -4.98752,-3.17504 0.519,1.872 1.4516,5.24216 1.4516,5.24216 0.012,0.055 0.0219,0.11375 0.0219,0.16875 0,0.279 -0.18418,0.53193 -0.46718,0.61093 -0.337,0.093 -0.68925,-0.10475 -0.78125,-0.44375 l -1.88752,-6.8328 c -0.07,-0.251 0.0218,-0.52213 0.23282,-0.67813 0.212,-0.156 0.49831,-0.164 0.72031,-0.025 0,0 5.41992,3.45016 6.03592,3.84216 0.61,-0.395 5.93904,-3.83128 5.93904,-3.83128 0.221,-0.142 0.50162,-0.13481 0.71562,0.0172 0.167,0.122 0.26563,0.31306 0.26563,0.51406 0,0.052 -0.009,0.10782 -0.0219,0.15782 0,0 -1.5824,6.17176 -1.75936,6.86872 0.551,0.459 5.45472,4.53128 5.45472,4.53128 0.147,0.123 0.22968,0.30406 0.22968,0.48906 0,0.068 -0.0108,0.13187 -0.0328,0.19687 -0.08,0.248 -0.30563,0.42094 -0.56563,0.43594 0,0 -6.32728,0.36325 -7.05624,0.40625 -0.267,0.679 -2.5844,6.6328 -2.5844,6.6328 -0.094,0.244 -0.33062,0.40313 -0.59062,0.40313 z m -31.0544,-8.6096 c -1.33904,0.061 -3.6092,-1.68592 -5.6672,-5.73592 -0.113,-0.222 -0.19606,-0.42813 -0.26406,-0.62813 -2.162,-0.646 -3.60088,-0.0707 -3.69688,-0.0297 -0.215,0.09 -0.46469,-0.01 -0.55469,-0.225 -0.094,-0.216 0.005,-0.46268 0.22187,-0.55468 0.102,-0.046 1.59896,-0.65776 3.83592,-0.11876 -0.001,-0.028 -0.006,-0.0595 -0.006,-0.0875 0,-0.629 0.26551,-1.05784 0.6125,-1.2828 0.97096,-0.633 3.10896,-0.0936 6.21096,3.07344 -0.201,-0.572 -0.38031,-1.19784 -0.49531,-1.84688 -0.005,-0.028 -0.006,-0.0568 -0.006,-0.0828 0,-0.178 0.10331,-0.33868 0.27031,-0.40468 0.335,-0.137 0.52787,0.14137 0.69687,0.38437 l 0.42969,0.64219 c 0.373,0.56 1.21016,1.81968 1.77816,2.47968 -0.069,-0.363 -0.13907,-0.77082 -0.13907,-1.15784 0,-0.524 0.12756,-1.0036 0.55156,-1.2516 0.355,-0.206 0.92328,-0.27876 2.15624,0.45624 0.104,-0.285 0.31282,-0.41956 0.43282,-0.47656 0.787,-0.365 2.27128,0.42369 3.82032,1.90472 -0.209,-0.469 -0.36994,-0.85888 -0.41094,-1.02184 -0.01,-0.045 -0.0141,-0.0891 -0.0141,-0.12812 0,-0.197 0.11825,-0.338 0.25625,-0.4 0.34,-0.15 0.55713,0.14762 0.72813,0.39062 l 0.46718,0.675 c 0.387,0.572 1.29768,1.91272 1.82968,2.46872 0.157,-0.385 0.43875,-0.87328 0.94376,-1.15624 -0.147,-0.332 -0.22031,-0.61782 -0.22031,-0.85784 0,-0.296 0.11081,-0.52087 0.33281,-0.67187 0.398,-0.27 1.0028,-0.12113 1.6328,0.22187 -2.012,-1.996 -2.93664,-3.98576 -2.9656,-4.86872 -9.6e-4,-0.016 -0.002,-0.034 -0.002,-0.05 0,-0.492 0.24163,-0.69006 0.39063,-0.76406 0.306,-0.153 0.67893,-0.0571 1.11096,0.28593 1.516,1.20296 2.61984,4.05824 3.1828,5.80624 0.756,0.616 1.6408,1.21608 2.65784,1.76408 -0.33,-0.579 -0.51719,-1.12576 -0.51719,-1.56872 0,-0.16 0.0243,-0.30849 0.0703,-0.4375 0.117,-0.31 0.36693,-0.50707 0.68593,-0.53907 0.699,-0.077 1.66472,0.65551 2.80472,2.06248 -0.097,-0.28 -0.19306,-0.55275 -0.28906,-0.81872 -3.166,-2.49504 -4.58984,-5.1608 -4.77184,-6.60784 -0.016,-0.118 -0.025,-0.22812 -0.025,-0.32812 0,-0.577 0.23287,-0.84304 0.44687,-0.96408 0.241,-0.137 0.64956,-0.20376 1.2516,0.25624 0.67,0.512 2.26704,3.01504 3.81408,7.13904 2.054,1.578 4.86848,3.08688 8.6128,4.12184 0.188,0.053 0.31406,0.22294 0.31406,0.41094 0,0.036 -0.007,0.0749 -0.0172,0.11094 -0.063,0.227 -0.297,0.35887 -0.525,0.29687 -3.27,-0.906 -5.85984,-2.17328 -7.8828,-3.54528 0.241,0.716 0.48106,1.47272 0.71406,2.26872 0.011,0.04 0.0156,0.0788 0.0156,0.11875 0,0.163 -0.0944,0.31694 -0.24844,0.38594 -0.193,0.087 -0.42082,0.0192 -0.53282,-0.15781 -2.11,-3.31296 -3.30472,-3.91592 -3.56872,-3.91096 -0.015,0.029 -0.025,0.0697 -0.025,0.12969 0,0.378 0.32219,1.32112 1.3672,2.42816 0.074,0.08 0.11719,0.18462 0.11719,0.29062 0,0.084 -0.0281,0.16918 -0.0781,0.24219 -0.116,0.163 -0.33007,0.227 -0.51407,0.15 -1.332,-0.564 -2.48016,-1.23104 -3.47816,-1.93904 0.011,0.041 0.0189,0.0714 0.0219,0.0844 0.007,0.036 0.0156,0.0691 0.0156,0.10313 0,0.155 -0.0892,0.302 -0.23125,0.375 -0.009,0.003 -0.0139,0.003 -0.0219,0.006 0.292,0.23 0.59182,0.48144 0.90784,0.77344 0.333,0.31 0.41875,0.592 0.41875,0.8 0,0.092 -0.0175,0.16656 -0.0375,0.22656 -0.097,0.3 -0.37469,0.49619 -0.75469,0.54219 -0.93696,0.109 -2.4216,-0.68363 -3.7516,-2.64064 -0.453,0.243 -0.6305,0.83368 -0.7125,1.10472 l -0.0328,0.10937 c -0.055,0.178 -0.21769,0.2885 -0.40469,0.2875 -0.287,-0.003 -0.59513,-0.20075 -1.07816,-0.76875 0.007,0.013 0.0123,0.0281 0.0203,0.0391 0.028,0.059 0.0406,0.12082 0.0406,0.18282 0,0.145 -0.0747,0.28506 -0.20468,0.36406 -0.188,0.113 -0.42882,0.0646 -0.55782,-0.10937 -2.364,-3.18304 -4.43384,-4.06728 -4.75784,-3.90624 -0.002,0.01 -0.009,0.0325 -0.009,0.0875 0,0.036 0.006,0.088 0.0172,0.15 0.528,0.378 1.15264,0.87208 1.89064,1.51408 0.685,0.594 0.84216,1.0752 0.84216,1.39216 0,0.145 -0.0341,0.254 -0.0641,0.325 -0.14,0.328 -0.47793,0.50944 -0.88592,0.47344 -0.87696,-0.075 -1.97296,-1.1016 -2.52496,-3.19064 -1.37,-0.93504 -1.73904,-0.79306 -1.78904,-0.76406 -0.186,0.107 -0.17137,0.69318 0.0406,1.74216 0.093,0.465 0.13525,0.67787 0.0312,0.87184 -0.102,0.19 -0.27894,0.30249 -0.48594,0.31249 -0.446,0.021 -0.9504,-0.44456 -1.9984,-1.92656 0.415,0.98704 0.82016,1.66496 0.82816,1.67504 0.042,0.069 0.0625,0.14531 0.0625,0.22031 0,0.133 -0.0632,0.26388 -0.18124,0.34688 -0.18,0.129 -0.42888,0.0949 -0.57188,-0.0781 -3.72704,-4.55 -6.26296,-5.496 -6.98592,-5.02496 -0.155,0.102 -0.22968,0.29849 -0.22968,0.56249 0,0.109 0.0177,0.23151 0.0437,0.3625 1.39496,0.497 3.0092,1.45112 4.7172,3.20312 1.00896,1.03 1.55,1.99624 1.55,2.73128 0,0.165 -0.0263,0.31882 -0.0813,0.45781 -0.15,0.381 -0.49475,0.61293 -0.94376,0.63593 z m -0.0391,-0.84688 c 0.158,-0.008 0.18075,-0.07 0.19375,-0.1 0.013,-0.038 0.0234,-0.0889 0.0234,-0.14687 0,-0.37 -0.32238,-1.1316 -1.30936,-2.14064 -1.32096,-1.354 -2.57096,-2.19472 -3.68592,-2.70472 1.96096,3.772 3.96312,5.13016 4.77816,5.09216 z m 18.0936,-0.73906 c -0.022,-0.029 -0.0462,-0.0621 -0.0922,-0.10313 -0.974,-0.90304 -1.83192,-1.47696 -2.51096,-1.7 1.06304,1.37904 1.984,1.70496 2.27504,1.77504 0.155,0.036 0.26013,0.0371 0.32813,0.0281 z m -9.4408,-1.39688 c -0.022,-0.1 -0.12976,-0.34425 -0.54376,-0.70625 -0.309,-0.267 -0.59368,-0.50675 -0.85472,-0.71875 0.431,0.90496 0.92216,1.24192 1.10312,1.33592 0.139,0.075 0.23732,0.0891 0.29532,0.0891 z m 7.8328,-0.89688 c -0.82096,-0.726 -1.56728,-1.06152 -1.83128,-1.06248 0.003,0.08 0.0381,0.26481 0.20312,0.6078 0.484,-0.018 1.02416,0.13069 1.62816,0.45469 z m 5.76096,-2.33752 c -1.29904,-3.11696 -2.51496,-4.96024 -2.96096,-5.30624 -0.146,-0.109 -0.24756,-0.15744 -0.30156,-0.17344 -0.016,0.038 -0.0297,0.10206 -0.0297,0.21406 0,0.195 0.0436,0.50669 0.20156,0.95472 0.389,1.11104 1.3636,2.69192 3.09064,4.31096 z m -6.08904,-0.009 c -0.577,-1.484 -1.39472,-3.14816 -2.37968,-3.92816 -0.048,-0.039 -0.0884,-0.0682 -0.12344,-0.0922 0.044,0.613 0.79412,2.25928 2.50312,4.02032 z m -2.92816,-16.7 c -1.42496,0 -2.1156,-0.85744 -2.1156,-2.1984 v -2.20784 c 0,-1.86304 0.69062,-2.6 2.1156,-2.6 0.86704,0 1.5104,0.20356 2.05936,0.50156 v 3.27184 h -2.09688 v -0.74531 h 1.24064 v -2.01248 c -0.178,-0.13 -0.58813,-0.29844 -1.20312,-0.29844 -0.81,0 -1.23904,0.37331 -1.23904,1.84528 v 2.27184 c 0,1.408 0.96904,1.45472 1.23904,1.45472 0.86704,0 1.19376,-0.42887 1.19376,-1.22184 h 0.89376 c 0.057,1.40704 -0.63351,1.93904 -2.08752,1.93904 z m 11.2144,0 c -1.12896,0 -1.97656,-0.63456 -1.97656,-1.82656 0,-2.02304 3.01872,-1.85272 3.01872,-3.34376 0,-0.80096 -0.52156,-1.09064 -1.2016,-1.09064 -0.549,0 -1.12816,0.28913 -1.12816,1.20312 v 0.19531 h -0.84688 c -0.019,-0.643 -0.0199,-2.16232 1.96408,-2.14528 1.11,0 2.08904,0.459 2.08904,1.87504 0,2.132 -3.01872,1.91904 -3.01872,3.4 0,0.727 0.52137,0.98752 1.0344,0.98752 0.81,0 1.04184,-0.48487 1.0328,-1.22184 h 0.89376 c 0.058,1.37 -0.63194,1.9672 -1.86096,1.9672 z m -33.0504,-0.13906 v -6.72656 h 3.52032 v 0.74531 h -2.66408 v 2.32816 h 2.42184 v 0.74531 h -2.42184 v 2.16096 h 2.60784 v 0.74687 h -3.46408 z m 4.59376,0 v -6.72656 h 0.76406 v 5.83128 h 0.0188 l 2.65472,-5.83128 h 1.17504 v 6.72656 h -0.76406 v -5.75936 h -0.0188 l -2.61872,5.75936 h -1.21096 z m 5.8,0 v -6.72656 h 3.52184 v 0.74531 h -2.66408 v 2.32816 h 2.42344 v 0.74531 h -2.42344 v 2.16096 h 2.60936 v 0.74687 h -3.4672 z m 4.55472,0 v -6.72656 h 0.85624 v 3.09216 h 1.00624 c 0.29,0 0.94904,-0.0378 1.01408,-0.85784 0.075,-0.894 0.0195,-1.7704 0.26249,-2.2344 h 0.89376 c -0.131,0.417 -0.22381,1.47136 -0.23281,1.75936 -0.046,1.352 -0.32444,1.6124 -1.0984,1.7344 v 0.0188 c 0.791,0.139 1.22816,0.74393 1.22816,1.53592 0,0.83896 -0.41794,1.67816 -1.61096,1.67816 h -2.31872 z m 9.42,0 1.80784,-4.16408 v -2.56248 h 0.85624 v 2.56248 l 1.8344,4.16408 h -0.8656 l -1.35936,-3.2516 -1.31408,3.2516 h -0.95936 z m 10.9856,0 v -0.74688 h 1.77032 v -5.97968 h 0.85624 v 5.97968 h 1.77032 v 0.74688 z m 9.7576,0 v -6.72656 h 0.85784 v 3.09216 h 1.00624 c 0.289,0 0.9496,-0.0378 1.0156,-0.85784 0.074,-0.894 0.0179,-1.7704 0.26093,-2.2344 h 0.89376 c -0.13,0.417 -0.22225,1.47136 -0.23125,1.75936 -0.047,1.352 -0.327,1.6124 -1.1,1.7344 v 0.0188 c 0.79,0.139 1.22816,0.74393 1.22816,1.53592 0,0.83896 -0.41893,1.67816 -1.61096,1.67816 z m -3.93904,-0.002 -2.1328,-6.72496 h 0.8656 l 0.50312,1.60312 h 2.6 l 0.48282,-1.60312 h 0.96096 l -2.18904,6.72496 h -1.09064 z m -25.3688,-0.74532 h 1.29528 c 0.66,0 0.90312,-0.53944 0.90312,-1.02344 0,-0.588 -0.29807,-1.11872 -0.91408,-1.11872 h -1.2844 v 2.14216 z m 30.1656,0 h 1.29528 c 0.661,0 0.90312,-0.53944 0.90312,-1.02344 0,-0.588 -0.2985,-1.11872 -0.91248,-1.11872 h -1.28592 z m -4.29528,-0.0469 h 0.0203 l 1.07968,-3.58592 h -2.1516 l 1.0516,3.58592 z"
   id="path25" />

  </g>

</g>
</svg>
