<?xml version="1.0" encoding="UTF-8" standalone="no"?>
<!-- Created with Inkscape (http://www.inkscape.org/) -->

<svg
   width="3842.8989"
   height="768.56567"
   viewBox="0 0 3842.8989 768.56567"
   version="1.1"
   id="SVGRoot"
   sodipodi:docname="grass.svg"
   inkscape:version="1.1.2 (0a00cf5339, 2022-02-04)"
   inkscape:export-filename="/home/nikolas/Documents/webmaster-tsa/no_factory_background.png"
   inkscape:export-xdpi="96"
   inkscape:export-ydpi="96"
   xmlns:inkscape="http://www.inkscape.org/namespaces/inkscape"
   xmlns:sodipodi="http://sodipodi.sourceforge.net/DTD/sodipodi-0.dtd"
   xmlns="http://www.w3.org/2000/svg"
   xmlns:svg="http://www.w3.org/2000/svg">
  <sodipodi:namedview
     id="namedview1863"
     pagecolor="#ffffff"
     bordercolor="#666666"
     borderopacity="1.0"
     inkscape:pageshadow="2"
     inkscape:pageopacity="0.0"
     inkscape:pagecheckerboard="0"
     inkscape:document-units="px"
     showgrid="false"
     inkscape:zoom="0.26142019"
     inkscape:cx="-592.91518"
     inkscape:cy="-569.96363"
     inkscape:window-width="1920"
     inkscape:window-height="1008"
     inkscape:window-x="0"
     inkscape:window-y="0"
     inkscape:window-maximized="1"
     inkscape:current-layer="layer1"
     fit-margin-top="0"
     fit-margin-left="0"
     fit-margin-right="0"
     fit-margin-bottom="0" />
  <defs
     id="defs1858">
    <inkscape:path-effect
       effect="skeletal"
       id="path-effect10893"
       is_visible="true"
       lpeversion="1"
       pattern="M 0,18.867925 C 0,8.4528302 8.4528302,0 18.867925,0 c 10.415094,0 18.867924,8.4528302 18.867924,18.867925 0,10.415094 -8.45283,18.867924 -18.867924,18.867924 C 8.4528302,37.735849 0,29.283019 0,18.867925 Z"
       copytype="single_stretched"
       prop_scale="1"
       scale_y_rel="false"
       spacing="0"
       normal_offset="0"
       tang_offset="0"
       prop_units="false"
       vertical_pattern="false"
       hide_knot="false"
       fuse_tolerance="0" />
    <inkscape:path-effect
       effect="bspline"
       id="path-effect10407"
       is_visible="true"
       lpeversion="1"
       weight="33.333333"
       steps="2"
       helper_size="0"
       apply_no_weight="true"
       apply_with_weight="true"
       only_selected="false" />
    <inkscape:path-effect
       effect="bspline"
       id="path-effect10403"
       is_visible="true"
       lpeversion="1"
       weight="33.333333"
       steps="2"
       helper_size="0"
       apply_no_weight="true"
       apply_with_weight="true"
       only_selected="false" />
    <inkscape:path-effect
       effect="bspline"
       id="path-effect10399"
       is_visible="true"
       lpeversion="1"
       weight="33.333333"
       steps="2"
       helper_size="0"
       apply_no_weight="true"
       apply_with_weight="true"
       only_selected="false" />
    <inkscape:path-effect
       effect="bspline"
       id="path-effect10395"
       is_visible="true"
       lpeversion="1"
       weight="33.333333"
       steps="2"
       helper_size="0"
       apply_no_weight="true"
       apply_with_weight="true"
       only_selected="false" />
    <inkscape:path-effect
       effect="bspline"
       id="path-effect10391"
       is_visible="true"
       lpeversion="1"
       weight="33.333333"
       steps="2"
       helper_size="0"
       apply_no_weight="true"
       apply_with_weight="true"
       only_selected="false" />
  </defs>
  <g
     inkscape:groupmode="layer"
     id="layer3"
     inkscape:label="sky"
     transform="translate(-3.441566,-1392.8208)" />
  <g
     inkscape:label="Layer 1"
     inkscape:groupmode="layer"
     id="layer1"
     transform="translate(-3.441566,-1392.8208)">
    <path
       opacity="0.8"
       d="m 764.43197,1476.8838 c -248.67049,9.4415 -454.7449,140.919 -760.9903997,212.4317 v 19.8272 452.2438 H 3846.3405 v -559.8759 c 0,0 -248.6705,-96.3025 -377.4984,-150.1186 -128.828,-53.8161 -434.4293,-67.034 -658.1279,-53.8161 -223.6987,13.218 -841.8813,162.392 -1011.6564,158.6153 -169.7737,-3.7766 -785.9567,-88.7488 -1034.62583,-79.3074 z"
       fill="#3d921f"
       id="path11182"
       style="stroke-width:1.38885" />
    <path
       opacity="0.8"
       d="m 764.43197,1633.1018 c -248.67049,7.2867 -454.7449,108.7583 -760.9904,163.9502 v 15.3023 349.0322 H 3846.3405 v -432.1004 c 0,0 -248.6705,-74.3243 -377.4984,-115.8583 -128.828,-41.5341 -434.4293,-51.7354 -658.1279,-41.5341 -223.6987,10.2013 -841.8813,125.3307 -1011.6564,122.4159 -169.7737,-2.9148 -785.9567,-68.4945 -1034.62583,-61.2078 z"
       fill="#3d921f"
       id="path11182-2"
       style="fill:#6ace46;fill-opacity:1;stroke-width:1.22012" />
    <path
       opacity="0.8"
       d="m 764.43197,1633.1018 c -248.67049,7.2867 -454.7449,108.7583 -760.9904,163.9502 v 15.3023 349.0322 H 3846.3405 v -432.1004 c 0,0 -248.6705,-74.3243 -377.4984,-115.8583 -128.828,-41.5341 -434.4293,-51.7354 -658.1279,-41.5341 -223.6987,10.2013 -841.8813,125.3307 -1011.6564,122.4159 -169.7737,-2.9148 -785.9567,-68.4945 -1034.62583,-61.2078 z"
       fill="#3d921f"
       id="path12105"
       style="fill:#6ace46;fill-opacity:1;stroke-width:1.22012" />
    <path
       opacity="0.8"
       d="m 764.43197,1777.6411 c -248.67049,5.2931 -454.7449,79.0019 -760.990404,119.0933 v 11.1155 253.5366 H 3846.3405 v -313.8772 c 0,0 -248.6705,-53.9891 -377.4984,-84.1593 -128.828,-30.1704 -434.4293,-37.5806 -658.1279,-30.1704 -223.6987,7.4103 -841.8813,91.0401 -1011.6564,88.9228 -169.7737,-2.1173 -785.9567,-49.7543 -1034.62583,-44.4613 z"
       fill="#3d921f"
       id="path12105-9"
       style="fill:#81d165;fill-opacity:1;stroke-width:1.0399" />
    <path
       opacity="0.8"
       d="m 764.432,1777.6411 c -248.67052,5.2931 -454.74493,79.0019 -760.99043,119.0933 v 11.1155 253.5366 H 3846.3405 v -313.8772 c 0,0 -248.6705,-53.9891 -377.4984,-84.1593 -128.828,-30.1704 -434.4293,-37.5806 -658.1279,-30.1704 -223.6987,7.4103 -841.8813,91.0401 -1011.6564,88.9228 -169.7737,-2.1173 -785.9567,-49.7543 -1034.6258,-44.4613 z"
       fill="#3d921f"
       id="path12105-9-1"
       style="fill:#81d165;fill-opacity:1;stroke-width:1.0399" />
    <path
       opacity="0.8"
       d="m 764.432,1905.7993 c -248.67052,3.5254 -454.74493,52.6179 -760.99043,79.3201 v 7.4033 168.8638 H 3846.3405 v -209.0527 c 0,0 -248.6705,-35.9585 -377.4984,-56.0529 -128.828,-20.0945 -434.4293,-25.0299 -658.1279,-20.0945 -223.6987,4.9356 -841.8813,60.6358 -1011.6564,59.2256 -169.7737,-1.4102 -785.9567,-33.138 -1034.6258,-29.6127 z"
       fill="#3d921f"
       id="path12105-9-1-2"
       style="fill:#94e279;fill-opacity:1;stroke-width:0.848671" />
  </g>
  <g
     inkscape:groupmode="layer"
     id="layer4"
     inkscape:label="factory"
     transform="translate(-3.441566,-1392.8208)" />
</svg>
