<svg width="300" height="300" viewBox="0 0 300 300" fill="none" xmlns="http://www.w3.org/2000/svg">
<path d="M192.687 6.14639L184.959 4.07584L107.313 293.854L115.041 295.924L192.687 6.14639Z" fill="#FFD42A"/>
<path d="M115.041 4.07584L107.313 6.14639L184.959 295.924L192.687 293.854L115.041 4.07584Z" fill="#FFD42A"/>
<path d="M46.7624 41.1055L41.1055 46.7624L253.238 258.894L258.894 253.238L46.7624 41.1055Z" fill="#FFD42A"/>
<path d="M6.14636 107.313L4.07581 115.041L293.854 192.687L295.924 184.959L6.14636 107.313Z" fill="#FFD42A"/>
<path d="M4.07581 184.959L6.14636 192.687L295.924 115.041L293.854 107.313L4.07581 184.959Z" fill="#FFD42A"/>
<path d="M41.1055 253.238L46.7623 258.894L258.894 46.7624L253.238 41.1055L41.1055 253.238Z" fill="#FFD42A"/>
<path d="M124.106 246.637C177.477 260.938 232.336 229.265 246.637 175.894C260.938 122.523 229.265 67.6637 175.894 53.3629C122.523 39.0622 67.6637 70.735 53.363 124.106C39.0622 177.477 70.735 232.336 124.106 246.637Z" fill="#FFDD55"/>
<path d="M126.696 236.973C174.73 249.844 224.103 221.338 236.973 173.304C249.844 125.27 221.339 75.8973 173.304 63.0266C125.27 50.156 75.8974 78.6615 63.0267 126.696C50.156 174.73 78.6615 224.103 126.696 236.973Z" fill="#E5FF80"/>
</svg>
